<svg width="338" height="330" viewBox="0 0 338 330" fill="none" xmlns="http://www.w3.org/2000/svg">
<path d="M36 280C-1.21332 316.422 27.5 303.5 0 330V4.8414e-06H337C345.576 0.798803 283.31 131.173 219.5 132.5C155.69 133.827 126.5 202.5 126.5 239.5C108.5 308 59.5 257 36 280Z" fill="#FEDCE4"/>
<path d="M33.1444 257.939C-1.11707 291.491 25.3186 279.588 0 304V4.45996e-06H310.268C318.164 0.735867 260.838 120.839 202.089 122.061C143.34 123.283 116.466 186.545 116.466 220.63C99.8935 283.733 54.7803 236.752 33.1444 257.939Z" fill="#FFF0F3"/>
</svg>
